<svg xmlns="http://www.w3.org/2000/svg" width="512" height="512" viewBox="0 0 512 512" version="1.1">
	<path d="M 237 70.288 C 235.625 71.053, 227.075 75.863, 218 80.976 C 208.925 86.089, 192.500 95.325, 181.500 101.499 C 170.500 107.674, 152.500 117.795, 141.500 123.990 C 130.500 130.185, 118.125 137.146, 114 139.459 C 69.403 164.462, 55.305 172.482, 54.217 173.471 C 53.210 174.387, 54.284 175.189, 59.217 177.203 C 62.673 178.614, 75.400 183.919, 87.500 188.993 C 99.600 194.066, 113.100 199.692, 117.500 201.495 C 121.900 203.297, 133.150 208.010, 142.500 211.967 C 168.283 222.879, 181.587 228.458, 191.500 232.516 C 196.450 234.542, 201.850 236.816, 203.500 237.569 C 205.150 238.322, 210.775 240.707, 216 242.868 L 225.500 246.797 225.756 328.898 C 225.897 374.054, 225.672 410.998, 225.256 410.996 C 224.840 410.994, 222.925 410.032, 221 408.857 C 217.732 406.864, 202.618 398.336, 197 395.316 C 195.625 394.576, 173.659 382.165, 148.188 367.736 L 101.875 341.500 101.688 270.500 L 101.500 199.500 86.250 199.224 L 71 198.948 71 278.879 L 71 358.810 78.750 363.296 C 83.013 365.763, 95.950 373.069, 107.500 379.531 C 119.050 385.993, 133.450 394.089, 139.500 397.522 C 145.550 400.955, 164.900 411.850, 182.500 421.735 C 200.100 431.619, 220.179 442.922, 227.120 446.853 L 239.740 454 247.874 454 L 256.009 454 255.754 340.330 L 255.500 226.659 243 221.396 C 236.125 218.502, 228.925 215.467, 227 214.652 C 220.002 211.688, 192.073 200.013, 174.500 192.705 C 123.425 171.465, 121.110 170.447, 122.083 169.665 C 123.568 168.474, 241.663 102.199, 248.022 98.989 C 255.006 95.464, 258.167 90.983, 258.167 84.609 C 258.167 79.205, 256.017 74.860, 251.887 71.920 C 248.029 69.172, 240.491 68.346, 237 70.288 M 275.445 69.959 C 272.159 71.290, 267.155 77.656, 266.453 81.400 C 264.868 89.848, 268.618 94.898, 282 102.340 C 287.225 105.246, 300.500 112.951, 311.500 119.463 C 322.500 125.975, 334.288 132.922, 337.696 134.902 C 379.130 158.963, 401.863 172.672, 401.636 173.461 C 401.484 173.990, 391.041 178.631, 378.430 183.776 C 365.818 188.921, 345.600 197.174, 333.500 202.116 C 321.400 207.059, 303.400 214.274, 293.500 218.149 C 283.600 222.025, 273.655 226.079, 271.401 227.157 C 260.549 232.348, 260.223 248.116, 270.840 254.333 C 275.745 257.206, 281.644 256.678, 290.390 252.583 C 294.600 250.612, 298.258 249, 298.521 249 C 298.783 249, 309.236 244.773, 321.749 239.606 C 386.894 212.709, 418.101 200, 419.007 200 C 419.675 200, 419.927 223.381, 419.757 269.578 L 419.500 339.157 384 360.875 C 297.358 413.882, 281.844 423.175, 277.551 424.637 C 271.770 426.607, 267.295 431.849, 266.421 437.676 C 265.911 441.079, 266.269 442.959, 268.138 446.686 C 271.559 453.508, 274.782 455.500, 282.401 455.500 C 287.702 455.500, 289.212 455.076, 292.306 452.716 C 295.986 449.909, 305.169 444.251, 383.500 396.527 C 407.150 382.118, 431.788 367.067, 438.250 363.081 L 450 355.832 450 260.954 L 450 166.076 437.750 158.881 C 431.012 154.923, 419.650 148.223, 412.500 143.991 C 405.350 139.760, 385.550 128.085, 368.500 118.048 C 351.450 108.010, 335.025 98.334, 332 96.544 C 328.975 94.754, 319.750 89.299, 311.500 84.421 C 303.250 79.543, 294.553 74.078, 292.173 72.276 C 288.534 69.520, 287.025 69.010, 282.673 69.063 C 279.828 69.098, 276.575 69.501, 275.445 69.959" stroke="none" fill="black" fill-rule="evenodd"/>
</svg>